<?xml version="1.0" encoding="UTF-8" standalone="no"?>
<svg width="141px" height="36px" viewBox="0 0 141 36" version="1.1" xmlns="http://www.w3.org/2000/svg" xmlns:xlink="http://www.w3.org/1999/xlink" xmlns:sketch="http://www.bohemiancoding.com/sketch/ns">
    <!-- Generator: Sketch 3.4.4 (17249) - http://www.bohemiancoding.com/sketch -->
    <title>Rectangle 37 + Stroke 2369 + Recipes</title>
    <desc>Created with Sketch.</desc>
    <defs></defs>
    <g id="Page-1" stroke="none" stroke-width="1" fill="none" fill-rule="evenodd" sketch:type="MSPage">
        <g id="Recipe-List" sketch:type="MSArtboardGroup" transform="translate(-10.000000, -10.000000)">
            <g id="Rectangle-37-+-Stroke-2369-+-Recipes" sketch:type="MSLayerGroup" transform="translate(10.000000, 10.000000)">
                <g id="Rectangle-37-+-Stroke-2369" fill="#FF863F" sketch:type="MSShapeGroup">
                    <rect id="Rectangle-37" x="0" y="0" width="36" height="36"></rect>
                    <path d="M4.58555944,31.32944 C5.02610181,31.785453 5.63838105,32.0298356 6.26808286,31.9970833 C6.8965402,31.9655907 7.56482058,31.5788615 7.95931757,31.0800186 L10.9858686,26.8071016 L9.247344,25.0044647 L4.91285504,27.9206802 C4.41008917,28.3074094 4.05417075,28.9347421 4.00688089,29.5708928 C3.96083551,30.2045241 4.14501706,30.8734271 4.58555944,31.32944 L4.58555944,31.32944 Z M31.3562244,4.65167436 C31.8005002,5.1026485 32.0344606,5.72620213 31.995882,6.3623528 C31.956059,6.99850347 31.6474304,7.58804508 31.1508869,7.97981311 L26.0759383,11.7778216 L24.3162577,9.99659969 L28.0670903,4.85826587 C28.4553649,4.35564385 29.0365324,4.04449689 29.6662342,4.00418635 C30.2934471,3.96513552 30.9107042,4.20070022 31.3562244,4.65167436 L31.3562244,4.65167436 Z M26.0758138,11.7781995 C27.0477449,12.7607688 27.0477449,14.3568142 26.0758138,15.3406432 L14.6366457,26.9211048 C13.6634702,27.9049339 12.0892157,27.9049339 11.1160401,26.9211048 L9.35635957,25.1386233 C8.38442852,24.1547942 8.38442852,22.5612683 9.35635957,21.5749198 L20.7967722,9.99697761 C21.7674587,9.01314855 23.3442022,9.01314855 24.3161333,9.99697761 L26.0758138,11.7781995 L26.0758138,11.7781995 Z" id="Stroke-2369" stroke="#FFFFFF" stroke-width="1.5" stroke-linejoin="round"></path>
                </g>
                <path d="M58.168,27 L62.464,27 L58.888,21.456 C60.928,20.496 62.032,18.624 62.032,16.032 C62.032,12.312 59.536,10.2 55.144,10.2 L47.848,10.2 L47.848,27 L51.64,27 L51.64,22.2 L55.144,22.2 L55.504,22.2 L58.168,27 Z M51.64,19.032 L51.64,13.344 L55.144,13.344 C57.232,13.344 58.432,14.28 58.432,16.152 C58.432,18.072 57.232,19.032 55.144,19.032 L51.64,19.032 Z M70.696,13.968 C66.76,13.968 64.048,16.608 64.048,20.592 C64.048,24.504 66.664,27.144 70.792,27.144 C73.12,27.144 75.016,26.304 76.312,24.864 L74.368,22.896 C73.48,23.784 72.328,24.264 71.104,24.264 C69.448,24.264 68.2,23.304 67.768,21.672 L77.032,21.672 C77.344,16.968 75.232,13.968 70.696,13.968 L70.696,13.968 Z M67.696,19.488 C67.984,17.784 69.088,16.68 70.72,16.68 C72.424,16.68 73.528,17.784 73.576,19.488 L67.696,19.488 Z M85,13.968 C81.04,13.968 78.376,16.632 78.376,20.592 C78.376,24.504 81.04,27.144 84.952,27.144 C87.592,27.144 89.608,26.088 90.688,24.288 L88.144,22.56 C87.496,23.568 86.464,24.072 85.144,24.072 C83.344,24.072 82.072,22.656 82.072,20.568 C82.072,18.504 83.344,17.112 85.144,17.112 C86.416,17.088 87.4,17.616 88.096,18.48 L90.592,16.68 C89.44,14.952 87.472,13.968 85,13.968 L85,13.968 Z M94.84,8.352 C93.664,8.352 92.848,9.216 92.848,10.416 C92.848,11.616 93.664,12.48 94.84,12.48 C96.016,12.48 96.832,11.616 96.832,10.416 C96.832,9.216 96.016,8.352 94.84,8.352 L94.84,8.352 Z M96.688,27 L96.688,14.088 L92.992,14.088 L92.992,27 L96.688,27 Z M108.136,13.968 C106.384,13.968 104.968,14.688 104.056,15.984 L104.056,14.088 L100.36,14.088 L100.36,31.656 L104.056,31.656 L104.056,25.128 C104.992,26.424 106.408,27.144 108.208,27.144 C111.832,27.144 114.208,24.528 114.208,20.616 C114.208,16.632 111.76,13.968 108.136,13.968 L108.136,13.968 Z M107.272,24.072 C105.376,24.072 104.056,22.632 104.056,20.496 C104.056,18.408 105.376,16.944 107.272,16.944 C109.168,16.944 110.464,18.432 110.464,20.496 C110.464,22.608 109.168,24.072 107.272,24.072 L107.272,24.072 Z M122.2,13.968 C118.264,13.968 115.552,16.608 115.552,20.592 C115.552,24.504 118.168,27.144 122.296,27.144 C124.624,27.144 126.52,26.304 127.816,24.864 L125.872,22.896 C124.984,23.784 123.832,24.264 122.608,24.264 C120.952,24.264 119.704,23.304 119.272,21.672 L128.536,21.672 C128.848,16.968 126.736,13.968 122.2,13.968 L122.2,13.968 Z M119.2,19.488 C119.488,17.784 120.592,16.68 122.224,16.68 C123.928,16.68 125.032,17.784 125.08,19.488 L119.2,19.488 Z M135.352,13.92 C132.544,13.92 130.264,15.288 130.264,17.952 C130.264,22.488 136.96,21.384 136.96,23.448 C136.96,24.144 136.264,24.456 135.328,24.456 C133.912,24.456 132.184,23.88 130.84,22.848 L129.64,25.344 C131.104,26.52 133.144,27.144 135.232,27.144 C138.16,27.144 140.488,25.752 140.488,23.112 C140.512,18.552 133.696,19.536 133.696,17.592 C133.696,16.92 134.32,16.632 135.184,16.632 C136.264,16.632 137.704,17.088 139.12,17.88 L140.392,15.36 C138.952,14.448 137.128,13.92 135.352,13.92 L135.352,13.92 Z" id="Recipes" fill="#000000" sketch:type="MSShapeGroup"></path>
            </g>
        </g>
    </g>
</svg>