<?xml version="1.0" encoding="UTF-8" standalone="no"?>
<svg width="17px" height="25px" viewBox="0 0 17 25" version="1.1" xmlns="http://www.w3.org/2000/svg" xmlns:xlink="http://www.w3.org/1999/xlink" xmlns:sketch="http://www.bohemiancoding.com/sketch/ns">
    <!-- Generator: Sketch 3.4.4 (17249) - http://www.bohemiancoding.com/sketch -->
    <title>Stroke 1275</title>
    <desc>Created with Sketch.</desc>
    <defs></defs>
    <g id="Page-1" stroke="none" stroke-width="1" fill="none" fill-rule="evenodd" sketch:type="MSPage">
        <g id="Recipe-Card-1" sketch:type="MSArtboardGroup" transform="translate(-244.000000, -319.000000)" stroke="#5D7E3D" stroke-width="1.5" stroke-linecap="round" stroke-linejoin="round">
            <path d="M254,323 C254,321.344 255.343,320 257,320 C258.656,320 260,321.344 260,323 L260,325 C260,326.657 258.656,328 257,328 C255.343,328 254,326.657 254,325 L254,323 L254,323 Z M257,328 L257,343 M248,320 L248,343 M245,320 L245,325 C245,326.657 246.343,328 248,328 C249.656,328 251,326.657 251,325 L251,320" id="Stroke-1275" sketch:type="MSShapeGroup"></path>
        </g>
    </g>
</svg>